<svg xmlns="http://www.w3.org/2000/svg" xmlns:xlink="http://www.w3.org/1999/xlink" width="500" zoomAndPan="magnify" viewBox="0 0 375 374.999991" height="500" preserveAspectRatio="xMidYMid meet" version="1.0"><defs><g/></defs><g fill="#525252" fill-opacity="1"><g transform="translate(17.03906, 177.609158)"><g><path d="M 86.296875 -166.453125 C 98.035156 -166.453125 109.03125 -164.257812 119.28125 -159.875 C 129.539062 -155.488281 138.570312 -149.394531 146.375 -141.59375 C 154.175781 -133.789062 160.296875 -124.757812 164.734375 -114.5 C 169.179688 -104.25 171.40625 -93.253906 171.40625 -81.515625 C 171.40625 -70.015625 169.179688 -59.164062 164.734375 -48.96875 C 160.296875 -38.769531 154.175781 -29.796875 146.375 -22.046875 C 138.570312 -14.296875 129.539062 -8.195312 119.28125 -3.75 C 109.03125 0.6875 98.035156 2.90625 86.296875 2.90625 C 74.796875 2.90625 63.945312 0.6875 53.75 -3.75 C 43.550781 -8.195312 34.578125 -14.296875 26.828125 -22.046875 C 19.078125 -29.796875 13.007812 -38.769531 8.625 -48.96875 C 4.238281 -59.164062 2.046875 -70.015625 2.046875 -81.515625 C 2.046875 -93.253906 4.238281 -104.25 8.625 -114.5 C 13.007812 -124.757812 19.078125 -133.789062 26.828125 -141.59375 C 34.578125 -149.394531 43.550781 -155.488281 53.75 -159.875 C 63.945312 -164.257812 74.796875 -166.453125 86.296875 -166.453125 Z M 86.296875 -27.859375 C 93.703125 -27.859375 100.679688 -29.253906 107.234375 -32.046875 C 113.785156 -34.835938 119.566406 -38.707031 124.578125 -43.65625 C 129.597656 -48.613281 133.53125 -54.335938 136.375 -60.828125 C 139.226562 -67.328125 140.65625 -74.222656 140.65625 -81.515625 C 140.65625 -89.035156 139.226562 -96.070312 136.375 -102.625 C 133.53125 -109.175781 129.597656 -114.925781 124.578125 -119.875 C 119.566406 -124.832031 113.785156 -128.707031 107.234375 -131.5 C 100.679688 -134.289062 93.703125 -135.6875 86.296875 -135.6875 C 79.003906 -135.6875 72.113281 -134.289062 65.625 -131.5 C 59.132812 -128.707031 53.4375 -124.832031 48.53125 -119.875 C 43.632812 -114.925781 39.789062 -109.175781 37 -102.625 C 34.207031 -96.070312 32.8125 -89.035156 32.8125 -81.515625 C 32.8125 -74.222656 34.207031 -67.328125 37 -60.828125 C 39.789062 -54.335938 43.632812 -48.613281 48.53125 -43.65625 C 53.4375 -38.707031 59.132812 -34.835938 65.625 -32.046875 C 72.113281 -29.253906 79.003906 -27.859375 86.296875 -27.859375 Z M 86.296875 -131.421875 C 93.253906 -131.421875 99.75 -130.109375 105.78125 -127.484375 C 111.820312 -124.867188 117.148438 -121.28125 121.765625 -116.71875 C 126.378906 -112.164062 129.96875 -106.867188 132.53125 -100.828125 C 135.09375 -94.785156 136.375 -88.347656 136.375 -81.515625 C 136.375 -74.566406 135.09375 -68.101562 132.53125 -62.125 C 129.96875 -56.144531 126.378906 -50.875 121.765625 -46.3125 C 117.148438 -41.757812 111.820312 -38.195312 105.78125 -35.625 C 99.75 -33.0625 93.253906 -31.78125 86.296875 -31.78125 C 79.460938 -31.78125 73.054688 -33.0625 67.078125 -35.625 C 61.097656 -38.195312 55.800781 -41.757812 51.1875 -46.3125 C 46.570312 -50.875 42.984375 -56.144531 40.421875 -62.125 C 37.859375 -68.101562 36.578125 -74.566406 36.578125 -81.515625 C 36.578125 -88.347656 37.859375 -94.785156 40.421875 -100.828125 C 42.984375 -106.867188 46.570312 -112.164062 51.1875 -116.71875 C 55.800781 -121.28125 61.097656 -124.867188 67.078125 -127.484375 C 73.054688 -130.109375 79.460938 -131.421875 86.296875 -131.421875 Z M 86.296875 -62.375 C 89.835938 -62.375 93.085938 -63.253906 96.046875 -65.015625 C 99.003906 -66.785156 101.363281 -69.148438 103.125 -72.109375 C 104.894531 -75.078125 105.78125 -78.210938 105.78125 -81.515625 C 105.78125 -85.046875 104.894531 -88.265625 103.125 -91.171875 C 101.363281 -94.078125 99.003906 -96.382812 96.046875 -98.09375 C 93.085938 -99.800781 89.835938 -100.65625 86.296875 -100.65625 C 82.992188 -100.65625 79.890625 -99.800781 76.984375 -98.09375 C 74.078125 -96.382812 71.738281 -94.078125 69.96875 -91.171875 C 68.207031 -88.265625 67.328125 -85.046875 67.328125 -81.515625 C 67.328125 -78.210938 68.207031 -75.078125 69.96875 -72.109375 C 71.738281 -69.148438 74.078125 -66.785156 76.984375 -65.015625 C 79.890625 -63.253906 82.992188 -62.375 86.296875 -62.375 Z M 86.296875 -62.375 "/></g></g></g><g fill="#525252" fill-opacity="1"><g transform="translate(179.533562, 177.609158)"><g><path d="M 87.5 1.03125 C 82.375 1.03125 77.585938 0.6875 73.140625 0 L 73.140625 -31.28125 C 75.421875 -30.820312 77.703125 -30.421875 79.984375 -30.078125 C 82.265625 -29.734375 84.769531 -29.5625 87.5 -29.5625 C 94.789062 -29.5625 101.65625 -30.957031 108.09375 -33.75 C 114.53125 -36.539062 120.195312 -40.359375 125.09375 -45.203125 C 130 -50.046875 133.847656 -55.628906 136.640625 -61.953125 C 139.429688 -68.273438 140.828125 -74.96875 140.828125 -82.03125 C 140.828125 -89.550781 139.429688 -96.554688 136.640625 -103.046875 C 133.847656 -109.546875 130.03125 -115.242188 125.1875 -120.140625 C 120.34375 -125.035156 114.703125 -128.847656 108.265625 -131.578125 C 101.828125 -134.316406 94.90625 -135.6875 87.5 -135.6875 C 80.207031 -135.6875 73.34375 -134.316406 66.90625 -131.578125 C 60.46875 -128.847656 54.796875 -125.035156 49.890625 -120.140625 C 44.992188 -115.242188 41.148438 -109.546875 38.359375 -103.046875 C 35.578125 -96.554688 34.1875 -89.550781 34.1875 -82.03125 L 34.1875 -15.203125 C 34.1875 -8.597656 32.875 -2.304688 30.25 3.671875 C 27.625 9.648438 24.03125 14.972656 19.46875 19.640625 C 14.914062 24.316406 9.679688 27.96875 3.765625 30.59375 L 3.765625 -82.03125 C 3.765625 -93.65625 5.925781 -104.5625 10.25 -114.75 C 14.582031 -124.945312 20.59375 -133.921875 28.28125 -141.671875 C 35.96875 -149.421875 44.878906 -155.457031 55.015625 -159.78125 C 65.160156 -164.113281 75.988281 -166.28125 87.5 -166.28125 C 99.007812 -166.28125 109.832031 -164.113281 119.96875 -159.78125 C 130.113281 -155.457031 139.03125 -149.421875 146.71875 -141.671875 C 154.40625 -133.921875 160.410156 -124.945312 164.734375 -114.75 C 169.066406 -104.5625 171.234375 -93.65625 171.234375 -82.03125 C 171.234375 -70.863281 169.039062 -60.265625 164.65625 -50.234375 C 160.269531 -40.210938 154.234375 -31.359375 146.546875 -23.671875 C 138.859375 -15.984375 129.972656 -9.941406 119.890625 -5.546875 C 109.804688 -1.160156 99.007812 1.03125 87.5 1.03125 Z M 37.59375 -82.03125 C 37.59375 -70.976562 37.648438 -59.867188 37.765625 -48.703125 C 37.878906 -37.535156 37.820312 -26.367188 37.59375 -15.203125 C 37.59375 -7.578125 36.164062 -0.460938 33.3125 6.140625 C 30.46875 12.753906 26.507812 18.484375 21.4375 23.328125 C 16.375 28.171875 10.484375 31.898438 3.765625 34.515625 L 3.765625 66.484375 C 12.878906 64.203125 21.363281 60.523438 29.21875 55.453125 C 37.082031 50.390625 43.945312 44.210938 49.8125 36.921875 C 55.6875 29.628906 60.273438 21.59375 63.578125 12.8125 C 66.878906 4.039062 68.53125 -5.070312 68.53125 -14.53125 L 68.53125 -81.34375 C 68.53125 -84.875 69.328125 -88.148438 70.921875 -91.171875 C 72.515625 -94.191406 74.765625 -96.640625 77.671875 -98.515625 C 80.578125 -100.398438 83.851562 -101.34375 87.5 -101.34375 C 92.96875 -101.34375 97.410156 -99.488281 100.828125 -95.78125 C 104.242188 -92.082031 106.125 -87.5 106.46875 -82.03125 C 106.46875 -77.8125 105.300781 -74.25 102.96875 -71.34375 C 100.632812 -68.445312 97.703125 -66.3125 94.171875 -64.9375 C 90.640625 -63.570312 86.992188 -63.203125 83.234375 -63.828125 C 79.472656 -64.453125 76.109375 -66.25 73.140625 -69.21875 L 73.140625 -35.03125 C 75.421875 -34.351562 77.703125 -33.785156 79.984375 -33.328125 C 82.265625 -32.867188 84.769531 -32.640625 87.5 -32.640625 C 94.332031 -32.640625 100.738281 -33.945312 106.71875 -36.5625 C 112.707031 -39.1875 117.976562 -42.773438 122.53125 -47.328125 C 127.09375 -51.890625 130.65625 -57.132812 133.21875 -63.0625 C 135.78125 -68.988281 137.0625 -75.3125 137.0625 -82.03125 C 137.0625 -88.863281 135.78125 -95.300781 133.21875 -101.34375 C 130.65625 -107.382812 127.09375 -112.710938 122.53125 -117.328125 C 117.976562 -121.941406 112.707031 -125.554688 106.71875 -128.171875 C 100.738281 -130.796875 94.332031 -132.109375 87.5 -132.109375 C 80.664062 -132.109375 74.226562 -130.796875 68.1875 -128.171875 C 62.144531 -125.554688 56.816406 -121.941406 52.203125 -117.328125 C 47.585938 -112.710938 44 -107.382812 41.4375 -101.34375 C 38.875 -95.300781 37.59375 -88.863281 37.59375 -82.03125 Z M 37.59375 -82.03125 "/></g></g></g><g fill="#525252" fill-opacity="1"><g transform="translate(17.296873, 359.109146)"><g><path d="M 135.515625 -82.203125 C 135.515625 -75.597656 134.257812 -69.332031 131.75 -63.40625 C 129.25 -57.476562 125.773438 -52.265625 121.328125 -47.765625 C 116.890625 -43.265625 111.707031 -39.734375 105.78125 -37.171875 C 99.863281 -34.609375 93.484375 -33.328125 86.640625 -33.328125 C 79.921875 -33.328125 73.597656 -34.609375 67.671875 -37.171875 C 61.753906 -39.734375 56.539062 -43.265625 52.03125 -47.765625 C 47.53125 -52.265625 44.023438 -57.476562 41.515625 -63.40625 C 39.015625 -69.332031 37.765625 -75.597656 37.765625 -82.203125 C 37.765625 -88.921875 39.015625 -95.210938 41.515625 -101.078125 C 44.023438 -106.953125 47.53125 -112.109375 52.03125 -116.546875 C 56.539062 -120.992188 61.753906 -124.5 67.671875 -127.0625 C 73.597656 -129.625 79.921875 -130.90625 86.640625 -130.90625 C 89.265625 -130.90625 91.769531 -130.789062 94.15625 -130.5625 C 96.550781 -130.332031 98.832031 -129.765625 101 -128.859375 L 101 -95.875 C 98.039062 -98.601562 94.679688 -100.253906 90.921875 -100.828125 C 87.160156 -101.398438 83.539062 -100.972656 80.0625 -99.546875 C 76.59375 -98.117188 73.6875 -95.925781 71.34375 -92.96875 C 69.007812 -90.007812 67.84375 -86.421875 67.84375 -82.203125 C 68.070312 -77.191406 69.863281 -72.863281 73.21875 -69.21875 C 76.582031 -65.570312 81.054688 -63.75 86.640625 -63.75 C 92.222656 -63.75 96.695312 -65.710938 100.0625 -69.640625 C 103.425781 -73.566406 105.109375 -78.15625 105.109375 -83.40625 L 105.109375 -169.1875 C 105.109375 -178.644531 106.726562 -187.726562 109.96875 -196.4375 C 113.21875 -205.15625 117.75 -213.128906 123.5625 -220.359375 C 129.375 -227.597656 136.179688 -233.78125 143.984375 -238.90625 C 151.785156 -244.039062 160.300781 -247.691406 169.53125 -249.859375 L 169.53125 -218.234375 C 162.925781 -215.734375 157.054688 -212.0625 151.921875 -207.21875 C 146.796875 -202.375 142.78125 -196.703125 139.875 -190.203125 C 136.96875 -183.710938 135.515625 -176.707031 135.515625 -169.1875 Z M 86.640625 -165.09375 C 89.265625 -165.09375 91.769531 -165.003906 94.15625 -164.828125 C 96.550781 -164.660156 98.832031 -164.289062 101 -163.71875 L 101 -132.953125 C 98.832031 -133.523438 96.550781 -134.039062 94.15625 -134.5 C 91.769531 -134.957031 89.265625 -135.1875 86.640625 -135.1875 C 79.460938 -135.1875 72.65625 -133.789062 66.21875 -131 C 59.78125 -128.207031 54.140625 -124.359375 49.296875 -119.453125 C 44.460938 -114.554688 40.648438 -108.914062 37.859375 -102.53125 C 35.066406 -96.15625 33.671875 -89.378906 33.671875 -82.203125 C 33.671875 -75.023438 35.035156 -68.242188 37.765625 -61.859375 C 40.503906 -55.484375 44.320312 -49.84375 49.21875 -44.9375 C 54.113281 -40.039062 59.75 -36.195312 66.125 -33.40625 C 72.507812 -30.613281 79.347656 -29.21875 86.640625 -29.21875 C 93.929688 -29.21875 100.765625 -30.613281 107.140625 -33.40625 C 113.523438 -36.195312 119.164062 -40.039062 124.0625 -44.9375 C 128.96875 -49.84375 132.785156 -55.484375 135.515625 -61.859375 C 138.253906 -68.242188 139.625 -75.023438 139.625 -82.203125 L 139.625 -169.1875 C 139.625 -175.6875 140.90625 -181.894531 143.46875 -187.8125 C 146.03125 -193.738281 149.5625 -198.976562 154.0625 -203.53125 C 158.5625 -208.09375 163.71875 -211.570312 169.53125 -213.96875 L 169.53125 -82.203125 C 169.53125 -70.804688 167.394531 -60.09375 163.125 -50.0625 C 158.851562 -40.039062 152.898438 -31.210938 145.265625 -23.578125 C 137.628906 -15.953125 128.828125 -10 118.859375 -5.71875 C 108.890625 -1.445312 98.148438 0.6875 86.640625 0.6875 C 75.253906 0.6875 64.519531 -1.445312 54.4375 -5.71875 C 44.351562 -10 35.492188 -15.953125 27.859375 -23.578125 C 20.222656 -31.210938 14.238281 -40.039062 9.90625 -50.0625 C 5.582031 -60.09375 3.421875 -70.804688 3.421875 -82.203125 C 3.421875 -93.367188 5.582031 -103.9375 9.90625 -113.90625 C 14.238281 -123.875 20.222656 -132.703125 27.859375 -140.390625 C 35.492188 -148.078125 44.351562 -154.113281 54.4375 -158.5 C 64.519531 -162.894531 75.253906 -165.09375 86.640625 -165.09375 Z M 86.640625 -165.09375 "/></g></g></g><g fill="#525252" fill-opacity="1"><g transform="translate(179.449585, 359.109146)"><g><path d="M 86.296875 -166.453125 C 98.035156 -166.453125 109.03125 -164.257812 119.28125 -159.875 C 129.539062 -155.488281 138.570312 -149.394531 146.375 -141.59375 C 154.175781 -133.789062 160.296875 -124.757812 164.734375 -114.5 C 169.179688 -104.25 171.40625 -93.253906 171.40625 -81.515625 C 171.40625 -70.015625 169.179688 -59.164062 164.734375 -48.96875 C 160.296875 -38.769531 154.175781 -29.796875 146.375 -22.046875 C 138.570312 -14.296875 129.539062 -8.195312 119.28125 -3.75 C 109.03125 0.6875 98.035156 2.90625 86.296875 2.90625 C 74.796875 2.90625 63.945312 0.6875 53.75 -3.75 C 43.550781 -8.195312 34.578125 -14.296875 26.828125 -22.046875 C 19.078125 -29.796875 13.007812 -38.769531 8.625 -48.96875 C 4.238281 -59.164062 2.046875 -70.015625 2.046875 -81.515625 C 2.046875 -93.253906 4.238281 -104.25 8.625 -114.5 C 13.007812 -124.757812 19.078125 -133.789062 26.828125 -141.59375 C 34.578125 -149.394531 43.550781 -155.488281 53.75 -159.875 C 63.945312 -164.257812 74.796875 -166.453125 86.296875 -166.453125 Z M 86.296875 -27.859375 C 93.703125 -27.859375 100.679688 -29.253906 107.234375 -32.046875 C 113.785156 -34.835938 119.566406 -38.707031 124.578125 -43.65625 C 129.597656 -48.613281 133.53125 -54.335938 136.375 -60.828125 C 139.226562 -67.328125 140.65625 -74.222656 140.65625 -81.515625 C 140.65625 -89.035156 139.226562 -96.070312 136.375 -102.625 C 133.53125 -109.175781 129.597656 -114.925781 124.578125 -119.875 C 119.566406 -124.832031 113.785156 -128.707031 107.234375 -131.5 C 100.679688 -134.289062 93.703125 -135.6875 86.296875 -135.6875 C 79.003906 -135.6875 72.113281 -134.289062 65.625 -131.5 C 59.132812 -128.707031 53.4375 -124.832031 48.53125 -119.875 C 43.632812 -114.925781 39.789062 -109.175781 37 -102.625 C 34.207031 -96.070312 32.8125 -89.035156 32.8125 -81.515625 C 32.8125 -74.222656 34.207031 -67.328125 37 -60.828125 C 39.789062 -54.335938 43.632812 -48.613281 48.53125 -43.65625 C 53.4375 -38.707031 59.132812 -34.835938 65.625 -32.046875 C 72.113281 -29.253906 79.003906 -27.859375 86.296875 -27.859375 Z M 86.296875 -131.421875 C 93.253906 -131.421875 99.75 -130.109375 105.78125 -127.484375 C 111.820312 -124.867188 117.148438 -121.28125 121.765625 -116.71875 C 126.378906 -112.164062 129.96875 -106.867188 132.53125 -100.828125 C 135.09375 -94.785156 136.375 -88.347656 136.375 -81.515625 C 136.375 -74.566406 135.09375 -68.101562 132.53125 -62.125 C 129.96875 -56.144531 126.378906 -50.875 121.765625 -46.3125 C 117.148438 -41.757812 111.820312 -38.195312 105.78125 -35.625 C 99.75 -33.0625 93.253906 -31.78125 86.296875 -31.78125 C 79.460938 -31.78125 73.054688 -33.0625 67.078125 -35.625 C 61.097656 -38.195312 55.800781 -41.757812 51.1875 -46.3125 C 46.570312 -50.875 42.984375 -56.144531 40.421875 -62.125 C 37.859375 -68.101562 36.578125 -74.566406 36.578125 -81.515625 C 36.578125 -88.347656 37.859375 -94.785156 40.421875 -100.828125 C 42.984375 -106.867188 46.570312 -112.164062 51.1875 -116.71875 C 55.800781 -121.28125 61.097656 -124.867188 67.078125 -127.484375 C 73.054688 -130.109375 79.460938 -131.421875 86.296875 -131.421875 Z M 86.296875 -62.375 C 89.835938 -62.375 93.085938 -63.253906 96.046875 -65.015625 C 99.003906 -66.785156 101.363281 -69.148438 103.125 -72.109375 C 104.894531 -75.078125 105.78125 -78.210938 105.78125 -81.515625 C 105.78125 -85.046875 104.894531 -88.265625 103.125 -91.171875 C 101.363281 -94.078125 99.003906 -96.382812 96.046875 -98.09375 C 93.085938 -99.800781 89.835938 -100.65625 86.296875 -100.65625 C 82.992188 -100.65625 79.890625 -99.800781 76.984375 -98.09375 C 74.078125 -96.382812 71.738281 -94.078125 69.96875 -91.171875 C 68.207031 -88.265625 67.328125 -85.046875 67.328125 -81.515625 C 67.328125 -78.210938 68.207031 -75.078125 69.96875 -72.109375 C 71.738281 -69.148438 74.078125 -66.785156 76.984375 -65.015625 C 79.890625 -63.253906 82.992188 -62.375 86.296875 -62.375 Z M 86.296875 -62.375 "/></g></g></g></svg>